<svg xmlns="http://www.w3.org/2000/svg" viewBox="0 0 900 1200" role="img" aria-labelledby="title desc">
  <title id="title">Stylized Pure Shine treatment atmosphere</title>
  <desc id="desc">A non-photographic luxury beauty studio visual with mirror lines, soft rose light, and cosmetic ritual shapes.</desc>
  <defs>
    <linearGradient id="bg" x1="0" y1="0" x2="1" y2="1">
      <stop offset="0" stop-color="#140d12"/>
      <stop offset=".45" stop-color="#22151b"/>
      <stop offset="1" stop-color="#f6eee4"/>
    </linearGradient>
    <linearGradient id="metal" x1="0" y1="0" x2="1" y2="1">
      <stop offset="0" stop-color="#fff8ee"/>
      <stop offset=".42" stop-color="#c8a065"/>
      <stop offset="1" stop-color="#a74767"/>
    </linearGradient>
    <filter id="soft" x="-20%" y="-20%" width="140%" height="140%">
      <feGaussianBlur stdDeviation="18"/>
    </filter>
  </defs>
  <rect width="900" height="1200" fill="url(#bg)"/>
  <path d="M76 152C184 62 324 26 496 44c192 20 296 108 322 264 32 190-76 322-254 380-186 60-300 150-344 284-22 66-72 120-144 160" fill="none" stroke="#fff7ec" stroke-width="2" opacity=".28"/>
  <path d="M156 170c118-52 250-62 396-30 126 28 204 92 232 192 36 130-18 232-164 306-150 76-272 144-326 260-42 90-88 144-138 164" fill="none" stroke="#c8a065" stroke-width="5" opacity=".62"/>
  <path d="M150 824c136-68 294-52 472 48" fill="none" stroke="#fff8ee" stroke-width="18" stroke-linecap="round" opacity=".18" filter="url(#soft)"/>
  <g opacity=".9">
    <rect x="206" y="304" width="488" height="610" rx="244" fill="none" stroke="url(#metal)" stroke-width="22"/>
    <rect x="244" y="344" width="412" height="530" rx="206" fill="none" stroke="#fffaf2" stroke-width="2" opacity=".38"/>
    <path d="M344 372h214M294 860h306" stroke="#fffaf2" stroke-width="4" stroke-linecap="round" opacity=".68"/>
  </g>
  <g fill="none" stroke-linecap="round">
    <path d="M230 996h436" stroke="#c8a065" stroke-width="10"/>
    <path d="M286 1038h326" stroke="#fff8ee" stroke-width="3" opacity=".6"/>
    <path d="M356 1072h186" stroke="#a74767" stroke-width="8"/>
  </g>
</svg>
